<?xml version="1.0" encoding="utf-8"?>
<!-- Generator: Adobe Illustrator 18.1.1, SVG Export Plug-In . SVG Version: 6.00 Build 0)  -->
<svg version="1.0" id="Calque_1" xmlns="http://www.w3.org/2000/svg" xmlns:xlink="http://www.w3.org/1999/xlink" x="0px" y="0px"
	 viewBox="0 0 250 250" enable-background="new 0 0 250 250" xml:space="preserve">
<g id="XMLID_53_">
	<g id="XMLID_1045_">
		<radialGradient id="XMLID_2_" cx="25.7075" cy="25.8184" r="246.1534" gradientUnits="userSpaceOnUse">
			<stop  offset="0" style="stop-color:#006CB5"/>
			<stop  offset="1" style="stop-color:#1F3460"/>
		</radialGradient>
		<rect id="XMLID_1046_" x="0" y="0" fill="url(#XMLID_2_)" width="250" height="250"/>
	</g>
	<g id="XMLID_992_">
		<g id="XMLID_993_">
			
				<radialGradient id="XMLID_3_" cx="131.7617" cy="61.1622" r="118.1004" fx="116.5079" fy="61.2246" gradientTransform="matrix(1 0 0 0.5618 0 26.7983)" gradientUnits="userSpaceOnUse">
				<stop  offset="6.381498e-002" style="stop-color:#000000;stop-opacity:0.5"/>
				<stop  offset="1" style="stop-color:#000000;stop-opacity:0"/>
			</radialGradient>
			<rect id="XMLID_1037_" x="0" y="0" fill="url(#XMLID_3_)" width="250" height="137.5"/>
			<g id="XMLID_1006_">
				<path id="XMLID_1033_" fill="#FFFFFF" d="M42.3,160.1c0-2.5-1.7-4.3-4.5-4.3H27.5v8.6h10.3C40.6,164.4,42.3,162.7,42.3,160.1z
					 M43.7,173.4c0-2.6-1.7-4.5-4.7-4.5H27.5v9H39C41.9,177.9,43.7,176.2,43.7,173.4z M22.5,151.2h15.9c5.6,0,8.9,3.7,8.9,8.2
					c0,3.5-2,6-4.6,6.9c3.4,0.7,6,3.7,6,7.7c0,5-3.6,8.5-9,8.5H22.5V151.2z"/>
				<path id="XMLID_1030_" fill="#FFFFFF" d="M69.6,156.7l-6.1,14.8h12.2L69.6,156.7z M80.1,182.5l-2.7-6.4H61.7l-2.7,6.4h-5.5
					l13.3-31.3h5.5l13.3,31.3H80.1z"/>
				<path id="XMLID_1028_" fill="#FFFFFF" d="M114.9,182.5l-17.9-23.2v23.2h-5v-31.3h4.8l17.8,22.8v-22.8h5v31.3H114.9z"/>
				<path id="XMLID_1026_" fill="#FFFFFF" d="M168,170v-18.8h5v18.7c0,5.5,3.3,8.5,8.7,8.5c5.3,0,8.6-2.9,8.6-8.5v-18.7h5V170
					c0,8.5-5.5,13-13.7,13C173.6,183,168,178.5,168,170z"/>
				<path id="XMLID_1024_" fill="#FFFFFF" d="M204.6,182.5v-31.3h22.8v4.6h-17.8v8.6h14.1v4.6h-14.1v9h18v4.6H204.6z"/>
				<path id="XMLID_1018_" fill="#FFFFFF" d="M36.2,196.2H22.5v31.2h5v-11.4h7.9c0.3,0,1.4,0,1.6-0.1c5.6-0.4,9.4-4.6,9.4-9.8
					C46.4,200.7,42.3,196.2,36.2,196.2z M35.7,211.5h-8.2v-10.7h8.2c3.2,0,5.6,2.2,5.6,5.4C41.3,209.3,38.9,211.5,35.7,211.5z"/>
				<polygon id="XMLID_1017_" fill="#FFFFFF" points="143.8,200.8 143.8,196.2 119.6,196.2 119.6,200.8 129.2,200.8 129.2,200.9 
					129.2,227.5 134.2,227.5 134.2,200.8 				"/>
				<polygon id="XMLID_1016_" fill="#FFFFFF" points="185.5,196.2 180.5,196.2 180.5,227.5 199.9,227.5 199.9,222.9 185.5,222.9 
									"/>
				<path id="XMLID_1015_" fill="#FFFFFF" d="M103.1,209.1c-5.4-1-8.2-1.7-8.1-4.3c0.1-2.4,2-4.2,5.5-4.5c0.8-0.1,1.6-0.1,2.5,0
					c2.8,0.2,5.7,1.2,7.6,2.8c0.2,0.1,0.4,0.3,0.5,0.4l2.7-4c-2.6-2.3-7-3.9-11.6-3.9c-7.3,0-12.2,4-12.4,9.5
					c-0.2,6.4,5.7,7.8,11.2,8.7c6.2,1.1,9,1.7,8.9,4.5c-0.1,2.6-2.3,4.7-6.8,4.9c-0.6,0-1.2,0-1.7,0c-4.1-0.2-7.2-1.6-9.4-3.7
					c-0.2-0.1-0.4-0.3-0.5-0.5l-2.9,4c3.3,3.1,7.8,4.8,13.3,4.8c8,0,12.9-4,13.1-9.8C115.3,211.3,109,210.1,103.1,209.1z"/>
				<path id="XMLID_1012_" fill="#FFFFFF" d="M67.9,195.6c-9.5,0-16.2,7-16.2,16.1c0,9.1,6.7,16.1,16.2,16.1c9.5,0,16.2-7,16.2-16.1
					C84.2,202.6,77.5,195.6,67.9,195.6z M67.9,223.2c-6.8,0-11.2-5-11.2-11.5c0-6.5,4.3-11.5,11.2-11.5c6.8,0,11.2,5,11.2,11.5
					C79.1,218.2,74.8,223.2,67.9,223.2z"/>
				<path id="XMLID_1009_" fill="#FFFFFF" d="M155.7,196.2l-13.3,31.3h5.5l2.7-6.4h15.7l2.7,6.4h5.6l-13.3-31.3H155.7z M152.4,216.5
					l6.1-14.8l6.1,14.8H152.4z"/>
				<polygon id="XMLID_1008_" fill="#FFFFFF" points="210.3,222.9 210.3,214 223.6,214 223.6,209.4 210.3,209.4 210.3,200.8 
					227.4,200.8 227.4,196.2 205.3,196.2 205.3,227.5 227.5,227.5 227.5,222.9 				"/>
				<path id="XMLID_18_" fill="#FFFFFF" d="M160.3,166.9c0-9.1-6.7-16.1-16.2-16.1c-9.5,0-16.2,7-16.2,16.1
					c0,9.1,6.7,16.1,16.2,16.1c1.4,0,2.7-0.2,4-0.4l2.3,5.5h5.6l-3.2-7.3C157.3,178,160.3,172.9,160.3,166.9z M144,178.4
					c-6.8,0-11.2-5-11.2-11.5c0-6.5,4.4-11.5,11.2-11.5c6.8,0,11.2,5,11.2,11.5c0,4-1.7,7.4-4.5,9.5l-1.3-2.9h-5.3l2,4.8
					C145.5,178.3,144.8,178.4,144,178.4z"/>
			</g>
			<g id="XMLID_1000_">
				<path id="XMLID_1004_" fill="#FFCC00" d="M22.5,137.5v-31.2h5v26.7h16.4v4.6H22.5z"/>
				<path id="XMLID_1001_" fill="#FFCC00" d="M65.9,111.7l-6.1,14.8H72L65.9,111.7z M76.4,137.5l-2.7-6.4H58.1l-2.7,6.4h-5.5
					l13.3-31.2h5.5L82,137.5H76.4z"/>
			</g>
			<g id="XMLID_994_">
				<g id="XMLID_995_">
					<path id="XMLID_996_" fill="#FFFFFF" d="M72.2,23.5c9.5,3.4,25.2,9.4,33.4,16.8l60-0.7c1.7-2.1,2.3-3,4.1-5.4
						c4.3-5.8,4.6-11.7-4.7-11.8c-4.9-0.1-83,0.3-92,0.3C71.4,22.8,70.4,22.8,72.2,23.5z M211.4,42.4l-104.3,1.9
						c0.4,4.3-4.1,10.4-13.6,16.3c-4.9,3-15.9,8.9-55,23.7c-0.5,0.2-0.3,0.8,0.1,0.7c67.7-17.2,112.6-30,172.8-41.5
						C213.3,43.3,214.4,42.5,211.4,42.4z M148.5,60.9L55.1,84.6c-0.2,0.1-0.3,0.4,0.1,0.4l72.4-2.3c4.4-0.2,7.6-3.7,9.3-5.9
						l11.9-15.3C149,61.1,149,60.8,148.5,60.9z"/>
				</g>
			</g>
		</g>
	</g>
</g>
<g>
</g>
<g>
</g>
<g>
</g>
<g>
</g>
<g>
</g>
<g>
</g>
</svg>
